<svg width="25" height="18" viewBox="0 0 25 18" fill="none" xmlns="http://www.w3.org/2000/svg">
<path fill-rule="evenodd" clip-rule="evenodd" d="M23.2772 1.76818C23.9964 2.5016 24.2312 4.16708 24.2312 4.16708C24.2312 4.16708 24.4712 6.12336 24.4712 8.07889V9.9128C24.4712 11.8691 24.2312 13.8246 24.2312 13.8246C24.2312 13.8246 23.9964 15.4901 23.2772 16.2235C22.4549 17.0911 21.5431 17.1808 21.0277 17.2314C20.971 17.237 20.9191 17.2421 20.8727 17.2477C17.5142 17.4924 12.4712 17.5 12.4712 17.5C12.4712 17.5 6.23119 17.4426 4.31119 17.2568C4.22022 17.2397 4.10995 17.2264 3.98507 17.2113C3.37689 17.1378 2.42232 17.0225 1.66444 16.2235C0.945191 15.4901 0.711191 13.8246 0.711191 13.8246C0.711191 13.8246 0.471191 11.8691 0.471191 9.9128V8.07889C0.471191 6.12336 0.711191 4.16708 0.711191 4.16708C0.711191 4.16708 0.945191 2.5016 1.66444 1.76818C2.48859 0.899349 3.40125 0.810675 3.91667 0.760597C3.97255 0.755167 4.02377 0.750191 4.06969 0.744724C7.42819 0.5 12.4659 0.5 12.4659 0.5H12.4764C12.4764 0.5 17.5142 0.5 20.8727 0.744724C20.9186 0.750199 20.9699 0.755182 21.0258 0.760621C21.5408 0.810704 22.4539 0.89949 23.2772 1.76818ZM9.99247 5.34375L9.99322 12.1348L16.477 8.751L9.99247 5.34375Z" fill="#161616"/>
</svg>
