<svg width="109" height="106" viewBox="0 0 109 106" fill="none" xmlns="http://www.w3.org/2000/svg">
<path d="M108.993 50C108.993 77.6142 89.6522 77.4688 58.9928 100C28.3335 122.531 38.9926 72 8.99283 50C-21.0069 28 31.3787 0 58.9928 0C86.607 0 108.993 22.3858 108.993 50Z" fill="#FFF5D8"/>
<path d="M53.9998 35.5859C45.407 35.5859 38.4165 42.5764 38.4165 51.1693C38.4165 60.3048 46.903 65.911 52.5185 69.6199L53.4902 70.2653C53.6442 70.368 53.822 70.4193 53.998 70.4193C54.174 70.4193 54.3518 70.368 54.5058 70.2653L55.4775 69.6199C61.093 65.911 69.5795 60.3048 69.5795 51.1693C69.5832 42.5764 62.5927 35.5859 53.9998 35.5859ZM53.9998 55.7526C51.468 55.7526 49.4165 53.7011 49.4165 51.1693C49.4165 48.6374 51.468 46.5859 53.9998 46.5859C56.5317 46.5859 58.5832 48.6374 58.5832 51.1693C58.5832 53.7011 56.5317 55.7526 53.9998 55.7526Z" fill="#161616"/>
</svg>
