<svg width="109" height="106" viewBox="0 0 109 106" fill="none" xmlns="http://www.w3.org/2000/svg">
<path d="M108.993 50C108.993 77.6142 89.6522 77.4688 58.9928 100C28.3335 122.531 38.9926 72 8.99283 50C-21.0069 28 31.3787 0 58.9928 0C86.607 0 108.993 22.3858 108.993 50Z" fill="#FFF5D8"/>
<path d="M54.0002 65.3776H50.3335C46.5422 65.3776 43.4585 62.2939 43.4585 58.5026C43.4585 54.7113 46.5422 51.6276 50.3335 51.6276H57.6668C59.942 51.6276 61.7918 49.7778 61.7918 47.5026C61.7918 45.2274 59.942 43.3776 57.6668 43.3776H54.0002C53.2412 43.3776 52.6252 42.7616 52.6252 42.0026C52.6252 41.2436 53.2412 40.6276 54.0002 40.6276H57.6668C61.4582 40.6276 64.5418 43.7113 64.5418 47.5026C64.5418 51.2939 61.4582 54.3776 57.6668 54.3776H50.3335C48.0583 54.3776 46.2085 56.2274 46.2085 58.5026C46.2085 60.7778 48.0583 62.6276 50.3335 62.6276H54.0002C54.7592 62.6276 55.3752 63.2436 55.3752 64.0026C55.3752 64.7616 54.7592 65.3776 54.0002 65.3776ZM49.4168 42.0026C49.4168 45.7371 46.0801 47.9406 43.871 49.3999L43.508 49.6403C43.354 49.743 43.1762 49.7943 43.0002 49.7943C42.8242 49.7943 42.6464 49.743 42.4924 49.6403L42.1294 49.3999C39.9202 47.9406 36.5835 45.7371 36.5835 42.0026C36.5835 38.4643 39.4618 35.5859 43.0002 35.5859C46.5385 35.5859 49.4168 38.4643 49.4168 42.0026ZM44.8702 42.0026C44.8702 40.9906 44.0489 40.1693 43.0369 40.1693H43.0185C42.0065 40.1693 41.1944 40.9906 41.1944 42.0026C41.1944 43.0146 42.0249 43.8359 43.0369 43.8359C44.0489 43.8359 44.8702 43.0146 44.8702 42.0026ZM71.4168 62.6276C71.4168 66.3621 68.0801 68.5656 65.871 70.0249L65.508 70.2653C65.354 70.368 65.1762 70.4193 65.0002 70.4193C64.8242 70.4193 64.6464 70.368 64.4924 70.2653L64.1294 70.0249C61.9202 68.5656 58.5835 66.3621 58.5835 62.6276C58.5835 59.0893 61.4618 56.2109 65.0002 56.2109C68.5385 56.2109 71.4168 59.0893 71.4168 62.6276ZM66.8702 62.6276C66.8702 61.6156 66.0489 60.7943 65.0369 60.7943H65.0185C64.0065 60.7943 63.1944 61.6156 63.1944 62.6276C63.1944 63.6396 64.0249 64.4609 65.0369 64.4609C66.0489 64.4609 66.8702 63.6396 66.8702 62.6276Z" fill="#161616"/>
</svg>
