<svg width="109" height="106" viewBox="0 0 109 106" fill="none" xmlns="http://www.w3.org/2000/svg">
<path d="M108.993 50C108.993 77.6142 89.6522 77.4688 58.9928 100C28.3335 122.531 38.9926 72 8.99283 50C-21.0069 28 31.3787 0 58.9928 0C86.607 0 108.993 22.3858 108.993 50Z" fill="#FFF5D8"/>
<path d="M49.875 36.5C49.875 35.7483 50.4983 35.125 51.25 35.125H56.75C57.5017 35.125 58.125 35.7483 58.125 36.5C58.125 37.2517 57.5017 37.875 56.75 37.875H51.25C50.4983 37.875 49.875 37.2517 49.875 36.5ZM70.5 48.875H68.5933L68.8133 50.635C69.5283 50.91 70.0417 51.3133 70.3533 51.68C71.1967 52.615 71.545 53.9533 71.3617 55.4017L70.6467 61.1217C70.39 63.1933 69.73 65.485 67.2917 66.365V69.5C67.2917 70.2517 66.6683 70.875 65.9167 70.875C65.165 70.875 64.5417 70.2517 64.5417 69.5V66.75H43.4583V69.5C43.4583 70.2517 42.835 70.875 42.0833 70.875C41.3317 70.875 40.7083 70.2517 40.7083 69.5V66.365C38.27 65.485 37.61 63.1933 37.3533 61.1217L36.6383 55.4017C36.455 53.9533 36.8033 52.615 37.6467 51.68C37.9583 51.3133 38.4717 50.91 39.1867 50.635L39.4067 48.875H37.5C36.7483 48.875 36.125 48.2517 36.125 47.5C36.125 46.7483 36.7483 46.125 37.5 46.125H39.755L39.9567 44.585C40.3967 41.8533 40.91 38.7917 46.74 38.7917H61.26C67.09 38.7917 67.6033 41.8533 68.0433 44.5483L68.245 46.125H70.5C71.2517 46.125 71.875 46.7483 71.875 47.5C71.875 48.2517 71.2517 48.875 70.5 48.875ZM45.2917 58.5C45.2917 58.1333 45.145 57.785 44.8883 57.5283C44.76 57.4 44.6133 57.29 44.4483 57.235C44.1 57.0883 43.7333 57.0883 43.385 57.235C43.22 57.3083 43.0733 57.4 42.945 57.5283C42.8167 57.6567 42.725 57.8033 42.6517 57.9683C42.5783 58.1333 42.5417 58.3167 42.5417 58.5C42.5417 58.6833 42.5783 58.8483 42.6517 59.0317C42.725 59.1967 42.8167 59.3433 42.945 59.4717C43.2017 59.7283 43.55 59.875 43.9167 59.875C44.1 59.875 44.2833 59.8383 44.4483 59.765C44.6133 59.6917 44.76 59.6 44.8883 59.4717C45.0167 59.3433 45.1083 59.1967 45.1817 59.0317C45.255 58.8483 45.2917 58.6833 45.2917 58.5ZM59.9583 58.5C59.9583 57.7483 59.335 57.125 58.5833 57.125H49.4167C48.665 57.125 48.0417 57.7483 48.0417 58.5C48.0417 59.2517 48.665 59.875 49.4167 59.875H58.5833C59.335 59.875 59.9583 59.2517 59.9583 58.5ZM65.4583 58.5C65.4583 58.1333 65.3117 57.785 65.055 57.5283C64.5417 57.015 63.625 57.015 63.1117 57.5283C62.855 57.785 62.7083 58.1333 62.7083 58.5C62.7083 58.6833 62.745 58.8667 62.8183 59.0317C62.8917 59.1967 62.9833 59.3433 63.1117 59.4717C63.3683 59.7283 63.735 59.875 64.0833 59.875C64.45 59.875 64.7983 59.7283 65.055 59.4717C65.1833 59.3433 65.275 59.1967 65.3483 59.0317C65.4217 58.8667 65.4583 58.6833 65.4583 58.5ZM66.0083 50.25L65.33 44.9517C64.9083 42.4033 64.7617 41.5417 61.26 41.5417H46.74C43.2383 41.5417 43.0917 42.4033 42.67 44.9883L41.9917 50.25H66.0083Z" fill="#161616"/>
</svg>
