<svg width="109" height="106" viewBox="0 0 109 106" fill="none" xmlns="http://www.w3.org/2000/svg">
<path d="M108.993 50C108.993 77.6142 89.6522 77.4688 58.9928 100C28.3335 122.531 38.9926 72 8.99283 50C-21.0069 28 31.3787 0 58.9928 0C86.607 0 108.993 22.3858 108.993 50Z" fill="#FFF5D8"/>
<path d="M70.5 45.6641V47.9557H37.5V45.6641C37.5 41.9974 39.3333 40.1641 43 40.1641H65C68.6667 40.1641 70.5 41.9974 70.5 45.6641ZM70.5 50.7057V60.3307C70.5 63.9974 68.6667 65.8307 65 65.8307H43C39.3333 65.8307 37.5 63.9974 37.5 60.3307V50.7057H70.5ZM51.7083 58.4974C51.7083 57.7384 51.0923 57.1224 50.3333 57.1224H44.8333C44.0743 57.1224 43.4583 57.7384 43.4583 58.4974C43.4583 59.2564 44.0743 59.8724 44.8333 59.8724H50.3333C51.0923 59.8724 51.7083 59.2564 51.7083 58.4974Z" fill="#161616"/>
</svg>
